<?xml version="1.0" encoding="UTF-8" standalone="no"?>
<svg
   xmlns:dc="http://purl.org/dc/elements/1.1/"
   xmlns:cc="http://creativecommons.org/ns#"
   xmlns:rdf="http://www.w3.org/1999/02/22-rdf-syntax-ns#"
   xmlns:svg="http://www.w3.org/2000/svg"
   xmlns="http://www.w3.org/2000/svg"
   id="svg8"
   version="1.1"
   viewBox="0 0 135.46666 135.46667"
   height="512"
   width="512">
  <defs
     id="defs2" />
  <metadata
     id="metadata5">
    <rdf:RDF>
      <cc:Work
         rdf:about="">
        <dc:format>image/svg+xml</dc:format>
        <dc:type
           rdf:resource="http://purl.org/dc/dcmitype/StillImage" />
        <dc:title></dc:title>
      </cc:Work>
    </rdf:RDF>
  </metadata>
  <g
     transform="translate(0,-161.53332)"
     id="layer1">
    <circle
       class="bgcircle"
       r="67.73333"
       style="stroke-width:0.35515606;fill-opacity:1"
       cy="229.26665"
       cx="67.73333"
       id="bg-circle" />
    <path
       id="arrow-left"
       d="m 8.3455949,227.49956 38.1598611,-21.11429 0.26727,9.18079 -26.859664,16.12068 25.021511,15.78375 1.038244,9.04195 -37.0926821,-20.6339 z"
       style="fill:#ffffff;fill-opacity:1;stroke-width:0.24824087" />
    <path
       style="fill:#ffffff;fill-opacity:1;stroke-width:0.24824087"
       d="m 132.03171,235.13087 -38.159865,21.11429 -0.26727,-9.18079 26.859665,-16.12068 -25.021505,-15.78375 -1.03825,-9.04195 37.092685,20.6339 z"
       id="arrow-right" />
    <g
       id="text-label"
       style="font-style:normal;font-weight:normal;font-size:10.58333302px;line-height:1.25;font-family:sans-serif;letter-spacing:0px;word-spacing:0px;fill:#000000;fill-opacity:1;stroke:none;stroke-width:0.26458332"
       aria-label="Code 
School
ITI">
      <path
         id="path4550"
         style="font-size:16.93333244px;text-align:center;text-anchor:middle;fill:#ffffff;stroke-width:0.26458332"
         d="m 59.994282,202.75282 v 1.76113 q -0.843359,-0.78548 -1.802474,-1.17409 -0.950846,-0.3886 -2.025716,-0.3886 -2.116666,0 -3.241145,1.29811 -1.12448,1.28984 -1.12448,3.73724 0,2.43913 1.12448,3.73724 1.124479,1.28984 3.241145,1.28984 1.07487,0 2.025716,-0.38861 0.959115,-0.3886 1.802474,-1.17408 v 1.74459 q -0.876432,0.59531 -1.860351,0.89297 -0.975651,0.29766 -2.067058,0.29766 -2.802929,0 -4.415234,-1.71153 -1.612304,-1.71979 -1.612304,-4.68808 0,-2.97656 1.612304,-4.68809 1.612305,-1.71979 4.415234,-1.71979 1.107943,0 2.083594,0.29766 0.983919,0.28939 1.843815,0.87643 z" />
      <path
         id="path4552"
         style="font-size:16.93333244px;text-align:center;text-anchor:middle;fill:#ffffff;stroke-width:0.26458332"
         d="m 66.112771,205.95262 q -1.223698,0 -1.934766,0.95912 -0.711067,0.95084 -0.711067,2.61276 0,1.66191 0.702799,2.62103 0.711068,0.95084 1.943034,0.95084 1.21543,0 1.926497,-0.95911 0.711068,-0.95912 0.711068,-2.61276 0,-1.64538 -0.711068,-2.60449 -0.711067,-0.96739 -1.926497,-0.96739 z m 0,-1.28984 q 1.984375,0 3.117122,1.28984 1.132748,1.28985 1.132748,3.57188 0,2.27376 -1.132748,3.57187 -1.132747,1.28985 -3.117122,1.28985 -1.992643,0 -3.125391,-1.28985 -1.124479,-1.29811 -1.124479,-3.57187 0,-2.28203 1.124479,-3.57188 1.132748,-1.28984 3.125391,-1.28984 z" />
      <path
         id="path4554"
         style="font-size:16.93333244px;text-align:center;text-anchor:middle;fill:#ffffff;stroke-width:0.26458332"
         d="m 78.969866,206.29162 v -5.01055 h 1.521354 v 12.86537 h -1.521354 v -1.38906 q -0.479557,0.82682 -1.215429,1.23196 -0.727605,0.39688 -1.752865,0.39688 -1.67845,0 -2.736784,-1.33946 -1.050065,-1.33945 -1.050065,-3.52226 0,-2.18281 1.050065,-3.52227 1.058334,-1.33945 2.736784,-1.33945 1.02526,0 1.752865,0.40514 0.735872,0.39688 1.215429,1.2237 z m -5.184179,3.23288 q 0,1.67845 0.686263,2.63756 0.694531,0.95085 1.901692,0.95085 1.207162,0 1.901693,-0.95085 0.694531,-0.95911 0.694531,-2.63756 0,-1.67845 -0.694531,-2.6293 -0.694531,-0.95911 -1.901693,-0.95911 -1.207161,0 -1.901692,0.95911 -0.686263,0.95085 -0.686263,2.6293 z" />
      <path
         id="path4556"
         style="font-size:16.93333244px;text-align:center;text-anchor:middle;fill:#ffffff;stroke-width:0.26458332"
         d="m 91.54584,209.13589 v 0.74414 h -6.994921 q 0.09922,1.57097 0.942578,2.39779 0.851627,0.81855 2.364713,0.81855 0.876432,0 1.694987,-0.21497 0.826823,-0.21497 1.637109,-0.64492 v 1.43867 q -0.818554,0.34727 -1.67845,0.52917 -0.859896,0.1819 -1.744596,0.1819 -2.215886,0 -3.513998,-1.28985 -1.289843,-1.28984 -1.289843,-3.48919 0,-2.27376 1.223698,-3.60495 1.231966,-1.33945 3.315559,-1.33945 1.86862,0 2.951758,1.20716 1.091406,1.19889 1.091406,3.26595 z m -1.521354,-0.44648 q -0.01654,-1.2485 -0.702799,-1.99265 -0.677995,-0.74414 -1.802474,-0.74414 -1.273308,0 -2.042253,0.71934 -0.760677,0.71934 -0.876432,2.02572 z" />
      <path
         id="path4558"
         style="font-size:16.93333244px;text-align:center;text-anchor:middle;fill:#ffffff;stroke-width:0.26458332"
         d="m 51.717785,223.37378 v 1.62884 q -0.950846,-0.45475 -1.794206,-0.67799 -0.843359,-0.22324 -1.628841,-0.22324 -1.364257,0 -2.108398,0.52916 -0.735872,0.52917 -0.735872,1.50482 0,0.81855 0.487825,1.24023 0.496094,0.41342 1.86862,0.66973 l 1.008724,0.20671 q 1.86862,0.35553 2.75332,1.25677 0.892969,0.89297 0.892969,2.39778 0,1.79421 -1.207162,2.72025 -1.198893,0.92604 -3.522265,0.92604 -0.876432,0 -1.86862,-0.19843 -0.983919,-0.19844 -2.042252,-0.58705 v -1.71979 q 1.016992,0.57051 1.992643,0.8599 0.975651,0.28938 1.918229,0.28938 1.430403,0 2.207617,-0.56224 0.777213,-0.56224 0.777213,-1.60403 0,-0.90951 -0.562239,-1.42214 -0.553971,-0.51263 -1.827279,-0.76894 l -1.016992,-0.19844 q -1.868619,-0.37207 -2.703711,-1.16582 -0.835091,-0.79375 -0.835091,-2.20762 0,-1.63711 1.149284,-2.57969 1.157552,-0.94257 3.183268,-0.94257 0.868164,0 1.769401,0.15709 0.901237,0.1571 1.843815,0.47129 z" />
      <path
         id="path4560"
         style="font-size:16.93333244px;text-align:center;text-anchor:middle;fill:#ffffff;stroke-width:0.26458332"
         d="m 61.664464,226.40822 v 1.42214 q -0.644922,-0.35554 -1.298112,-0.52917 -0.644922,-0.1819 -1.30638,-0.1819 -1.480013,0 -2.298567,0.94258 -0.818555,0.93431 -0.818555,2.62929 0,1.69499 0.818555,2.63757 0.818554,0.93431 2.298567,0.93431 0.661458,0 1.30638,-0.17363 0.65319,-0.1819 1.298112,-0.53744 v 1.4056 q -0.636653,0.29766 -1.322916,0.44648 -0.677995,0.14883 -1.44694,0.14883 -2.091862,0 -3.323828,-1.31465 -1.231966,-1.31464 -1.231966,-3.54707 0,-2.26549 1.240234,-3.5636 1.248502,-1.29811 3.414778,-1.29811 0.7028,0 1.372526,0.14882 0.669727,0.14056 1.298112,0.42995 z" />
      <path
         id="path4562"
         style="font-size:16.93333244px;text-align:center;text-anchor:middle;fill:#ffffff;stroke-width:0.26458332"
         d="m 72.024556,229.72378 v 5.58932 h -1.521354 v -5.53971 q 0,-1.31465 -0.512631,-1.96784 -0.51263,-0.65319 -1.53789,-0.65319 -1.231966,0 -1.943034,0.78548 -0.711068,0.78549 -0.711068,2.14148 v 5.23378 h -1.529622 v -12.86536 h 1.529622 v 5.04362 q 0.545704,-0.83509 1.281576,-1.2485 0.74414,-0.41341 1.711523,-0.41341 1.595768,0 2.414323,0.99218 0.818555,0.98392 0.818555,2.90215 z" />
      <path
         id="path4564"
         style="font-size:16.93333244px;text-align:center;text-anchor:middle;fill:#ffffff;stroke-width:0.26458332"
         d="m 78.663941,227.11929 q -1.223697,0 -1.934765,0.95911 -0.711068,0.95085 -0.711068,2.61276 0,1.66192 0.7028,2.62103 0.711067,0.95085 1.943033,0.95085 1.21543,0 1.926498,-0.95912 0.711067,-0.95911 0.711067,-2.61276 0,-1.64537 -0.711067,-2.60449 -0.711068,-0.96738 -1.926498,-0.96738 z m 0,-1.28984 q 1.984375,0 3.117123,1.28984 1.132747,1.28984 1.132747,3.57187 0,2.27377 -1.132747,3.57188 -1.132748,1.28984 -3.117123,1.28984 -1.992643,0 -3.12539,-1.28984 -1.124479,-1.29811 -1.124479,-3.57188 0,-2.28203 1.124479,-3.57187 1.132747,-1.28984 3.12539,-1.28984 z" />
      <path
         id="path4566"
         style="font-size:16.93333244px;text-align:center;text-anchor:middle;fill:#ffffff;stroke-width:0.26458332"
         d="m 89.015763,227.11929 q -1.223698,0 -1.934765,0.95911 -0.711068,0.95085 -0.711068,2.61276 0,1.66192 0.7028,2.62103 0.711067,0.95085 1.943033,0.95085 1.21543,0 1.926498,-0.95912 0.711067,-0.95911 0.711067,-2.61276 0,-1.64537 -0.711067,-2.60449 -0.711068,-0.96738 -1.926498,-0.96738 z m 0,-1.28984 q 1.984375,0 3.117123,1.28984 1.132747,1.28984 1.132747,3.57187 0,2.27377 -1.132747,3.57188 -1.132748,1.28984 -3.117123,1.28984 -1.992643,0 -3.12539,-1.28984 -1.124479,-1.29811 -1.124479,-3.57188 0,-2.28203 1.124479,-3.57187 1.132747,-1.28984 3.12539,-1.28984 z" />
      <path
         id="path4568"
         style="font-size:16.93333244px;text-align:center;text-anchor:middle;fill:#ffffff;stroke-width:0.26458332"
         d="m 95.779174,222.44774 h 1.521354 v 12.86536 h -1.521354 z" />
      <path
         id="path4570"
         style="font-size:16.93333244px;text-align:center;text-anchor:middle;fill:#ffffff;stroke-width:0.26458332"
         d="m 62.259777,244.1353 h 1.670182 v 12.34447 h -1.670182 z" />
      <path
         id="path4572"
         style="font-size:16.93333244px;text-align:center;text-anchor:middle;fill:#ffffff;stroke-width:0.26458332"
         d="m 65.542263,244.1353 h 10.442773 v 1.4056 h -4.382161 v 10.93887 h -1.67845 V 245.5409 h -4.382162 z" />
      <path
         id="path4574"
         style="font-size:16.93333244px;text-align:center;text-anchor:middle;fill:#ffffff;stroke-width:0.26458332"
         d="m 77.605609,244.1353 h 1.670182 v 12.34447 h -1.670182 z" />
    </g>
  </g>
</svg>
