<?xml version="1.0" encoding="UTF-8" standalone="no"?>
<svg
   xmlns:dc="http://purl.org/dc/elements/1.1/"
   xmlns:cc="http://creativecommons.org/ns#"
   xmlns:rdf="http://www.w3.org/1999/02/22-rdf-syntax-ns#"
   xmlns:svg="http://www.w3.org/2000/svg"
   xmlns="http://www.w3.org/2000/svg"
   id="svg8"
   version="1.1"
   viewBox="0 0 26.458333 26.458334"
   height="100"
   width="100">
  <defs
     id="defs2" />
  <metadata
     id="metadata5">
    <rdf:RDF>
      <cc:Work
         rdf:about="">
        <dc:format>image/svg+xml</dc:format>
        <dc:type
           rdf:resource="http://purl.org/dc/dcmitype/StillImage" />
        <dc:title></dc:title>
      </cc:Work>
    </rdf:RDF>
  </metadata>
  <g
     transform="translate(0,-270.54165)"
     id="layer1">
    <path
       id="path815"
       d="m 13.313573,272.72976 c -1.545696,10e-6 -2.93034,0.68955 -3.8631121,1.7778 -0.7622694,0.88933 -1.2227651,2.04493 -1.2227698,3.30809 0.00227,1.61286 0.7694237,3.12904 2.0675389,4.08624 -1.2166559,0.62078 -2.1958079,1.57335 -2.85001,2.71491 -0.5875002,1.02518 -0.9129356,2.20278 -0.9129736,3.42939 3.59e-5,1.55303 0.5132933,2.98619 1.3794206,4.13912 1.2584924,1.67521 3.261978,2.7588 5.518553,2.75885 2.261435,10e-5 4.268749,-1.08803 5.526841,-2.7693 0.861385,-1.15113 1.371549,-2.58032 1.371585,-4.12867 -0.0016,-1.13291 -0.280524,-2.22266 -0.786137,-3.18866 -0.676044,-1.29161 -1.75729,-2.36199 -3.122428,-3.01848 1.247288,-0.96221 1.978291,-2.4481 1.979375,-4.0234 -5e-6,-1.35533 -0.530159,-2.58684 -1.394402,-3.49846 -0.926855,-0.97767 -2.23796,-1.58742 -3.691481,-1.58743 z"
       style="opacity:1;fill:none;fill-opacity:1;stroke:#ff00fc;stroke-width:2.64583333;stroke-linecap:round;stroke-linejoin:round;stroke-miterlimit:4;stroke-dasharray:none;stroke-opacity:1;paint-order:normal" />
  </g>
</svg>
